<svg width="9768" height="18836" viewBox="0 0 9768 18836" fill="none" xmlns="http://www.w3.org/2000/svg">
<path d="M2894 834.026H3149V858.026H2894V834.026Z" fill="#262626"/>
<path d="M2894 1382.03H3149V1406.03H2894V1382.03Z" fill="#262626"/>
<path d="M2894 1930.03H3149V1954.03H2894V1930.03Z" fill="#262626"/>
<path d="M2894 2478.03H3149V2502.03H2894V2478.03Z" fill="#262626"/>
<path d="M2894 3026.03H3149V3050.03H2894V3026.03Z" fill="#262626"/>
<path d="M2894 3574.03H3149V3598.03H2894V3574.03Z" fill="#262626"/>
<path d="M2894 4122.03H3149V4146.03H2894V4122.03Z" fill="#262626"/>
<path d="M2894 4670.03H3149V4694.03H2894V4670.03Z" fill="#262626"/>
<path d="M2894 5218.03H3149V5242.03H2894V5218.03Z" fill="#262626"/>
<path d="M2894 5766.03H3149V5790.03H2894V5766.03Z" fill="#262626"/>
<path d="M2894 6314.03H3149V6338.03H2894V6314.03Z" fill="#262626"/>
<path d="M2894 6862.03H3149V6886.03H2894V6862.03Z" fill="#262626"/>
<path d="M2894 7410.03H3149V7434.03H2894V7410.03Z" fill="#262626"/>
<path d="M2894 7958.03H3149V7982.03H2894V7958.03Z" fill="#262626"/>
<path d="M2894 8506.03H3149V8530.03H2894V8506.03Z" fill="#262626"/>
<path d="M2894 9054.03H3149V9078.03H2894V9054.03Z" fill="#262626"/>
<path d="M2894 9602.03H3149V9626.03H2894V9602.03Z" fill="#262626"/>
<path d="M2894 10150H3149V10174H2894V10150Z" fill="#262626"/>
<path d="M2894 10698H3149V10722H2894V10698Z" fill="#262626"/>
<path d="M9767.5 351.568V18831.6L-1 18836L-1 355.979L1594.36 331.089C1639.73 330.382 1685.08 332.999 1730.06 338.921C1816.26 350.268 1903.62 349.456 1989.6 336.507L2053.72 326.849C2114.79 317.651 2174.95 303.188 2233.53 283.621L2385 233.026C2479.82 200.203 2578.92 180.896 2679.25 178.968C2743.91 177.726 2809.92 177.635 2833.5 181.526C2885 190.026 2919.5 229.026 2956 331.526C2971.49 375.012 2970.86 434.787 2965.01 489.203C2955.05 581.808 2939.18 670.051 2938.51 763.187C2930 1959.35 2871.28 10656.2 2956 11636C3047 12688.5 3097.75 13234.8 3408 13811C3603.68 14174.5 4008.21 14600.4 4280.3 14865.4C4453.1 15033.7 4686.32 15120.6 4927.36 15130.1C5181.67 15140 5536.29 15160.3 5896.5 15201.5C6578 15279.5 7030 15422 7384 15422C7428.41 15422 7561.5 15420.5 7561.5 15423.5C7561.5 15426.5 7531 15428 7522.5 15442.5C7514 15457 7556.83 16054.6 7608.5 16053C7639.93 16052.1 7637.34 15617.7 7650.5 15471C7653.15 15441.5 7615.17 15428.3 7622 15428C7658.85 15426.8 7779 15432.5 7780 15436.5C7781 15440.5 7757.48 15448.5 7760.5 15459.5C7784.14 15545.7 7794.13 15927.4 7831.5 15926C7870.36 15924.6 7844.61 15543 7866 15459.5C7868.59 15449.4 7836.5 15445.5 7838.5 15441C7840.5 15436.5 8347.76 15430.3 8414.54 15433.9C8452.02 15435.9 8495.1 15448.2 8499.09 15485.5C8502.78 15520 8485.52 15577.5 8402 15670C8234.5 15855.5 5946 17457 6197 17806.5C6448 18156 6431.5 18249.7 8125.5 18218.7C9819.5 18187.7 7526.5 17099.2 7813.5 16685.7C8100.5 16272.2 8629.5 15744 8673 15557C8716.5 15370 8738.5 15285.5 8660.5 15229.5C8582.5 15173.5 8451 15165 7905.5 15094C7360 15023 6919.5 15049.5 6562.5 15102.5C6372 15130.8 6263 15107.5 6163 15059C6063 15010.5 5995 14903.5 5896.5 14892.5C5798 14881.5 5716.5 14914.8 5412 14921C5121.3 14927 4683.76 14682.4 4554.31 14248.6C4541.91 14207.1 4536.15 14164.1 4532.42 14121C4512.68 13892.3 4446.37 13123.9 4429.5 12922C4409.61 12684 4386.5 12488 4374.98 12264.7C4363.45 12041.4 4017.25 4768.71 4017.19 4767.41C4017.18 4767.37 4017.19 4767.39 4017.18 4767.35C4016.73 4757.79 4016.2 4749.15 4015.47 4739.6C3996.4 4490.84 3718.71 869.407 3710.5 816.026C3702 760.747 3735.5 400.026 3684 344.854C3632.5 289.682 3490 196.026 3439 131.026C3388 66.0263 3657 3.52631 3867.5 0.0263061C3963.02 -1.56193 4077.18 69.0073 4173.39 146.574C4314.4 260.26 4482.87 343.959 4664 344.854L5941 351.163L9767.5 351.568Z" fill="#313131"/>
</svg>
